<?xml version="1.0" encoding="iso-8859-1"?>
<!-- Generator: Adobe Illustrator 19.0.0, SVG Export Plug-In . SVG Version: 6.00 Build 0)  -->
<svg version="1.1" id="Capa_1" xmlns="http://www.w3.org/2000/svg" xmlns:xlink="http://www.w3.org/1999/xlink" x="0px" y="0px"
	 viewBox="0 0 512 512" style="enable-background:new 0 0 512 512;" xml:space="preserve">
<g>
	<g>
		<path d="M467,0H45c-4.618,0-8.987,0.901-13.184,2.199L257,176.25L480.184,2.199C475.987,0.901,471.618,0,467,0z"/>
	</g>
</g>
<g>
	<g>
		<path d="M504.888,20.933L265.994,206.997c-2.666,2.007-5.83,3.003-8.994,3.003s-6.328-0.996-8.994-3.003L7.112,20.933
			C2.664,27.909,0,36.13,0,45v242c0,24.814,20.186,45,45,45h209.715c23.212-52.881,75.934-90,137.285-90
			c47.988,0,90.306,23.066,117.783,58.242C511.092,296.027,512,291.64,512,287V45C512,36.13,509.336,27.909,504.888,20.933z"/>
	</g>
</g>
<g>
	<g>
		<path d="M392,272c-66.275,0-120,53.725-120,120s53.725,120,120,120s120-53.725,120-120S458.275,272,392,272z M462.587,402.624
			l-44.982,44.982c-5.859,5.859-15.352,5.859-21.211,0s-5.859-15.352,0-21.211L415.789,407H332c-8.291,0-15-6.709-15-15
			c0-8.291,6.709-15,15-15h83.789l-19.395-19.395c-5.859-5.859-5.859-15.352,0-21.211s15.352-5.859,21.211,0l44.982,44.982
			C468.393,387.166,468.483,396.742,462.587,402.624z"/>
	</g>
</g>
<g>
</g>
<g>
</g>
<g>
</g>
<g>
</g>
<g>
</g>
<g>
</g>
<g>
</g>
<g>
</g>
<g>
</g>
<g>
</g>
<g>
</g>
<g>
</g>
<g>
</g>
<g>
</g>
<g>
</g>
</svg>
